<?xml version="1.0" encoding="utf-8"?>
<!-- Generator: Adobe Illustrator 28.0.0, SVG Export Plug-In . SVG Version: 6.00 Build 0)  -->
<svg version="1.1" id="Layer_1" xmlns="http://www.w3.org/2000/svg" xmlns:xlink="http://www.w3.org/1999/xlink" x="0px" y="0px"
	 width="1000px" height="1000px" viewBox="0 0 1000 1000" style="enable-background:new 0 0 1000 1000;" xml:space="preserve">
<style type="text/css">
	.st0{fill:#FFFFFF;}
</style>
<g>
	<path class="st0" d="M719.5,270.9c-16.3,16.2-32.6,32.3-49,48.5c-9.1,9-18.3,18-27.3,27.1c-2.2,2.2-4.4,3.1-7.4,3
		c-46-0.1-92-0.2-138-0.2c-21.3,0-42.7-0.2-64-0.1c-13.5,0.1-26.4,3-38.2,10c-24.9,14.7-36.6,43.4-28.1,71
		c4.8,15.6,15,27.3,28.9,35.7c1.5,0.9,3.1,1.8,4.9,2.9c-17,20.2-33.8,40.2-50.9,60.4c-2.1-1.4-3.9-2.5-5.6-3.8
		c-32.3-24.4-52.1-56.3-56.7-96.7c-4.6-40.9,6-77.7,33-109.1c19-22.1,43-36.6,70.9-44.5c12.8-3.6,25.7-5.6,39-5.6
		c94.3,0,188.6,0,283,0.1c1.6,0,3.3,0,4.9,0C719.1,270,719.3,270.5,719.5,270.9z"/>
	<path class="st0" d="M709.3,632.7c-8.3,30.6-24.5,55.2-50.1,73.1c-24.6,17.2-52.2,24.5-82,24.5c-97.6,0.1-195.3,0.1-292.9,0.2
		c-1,0-2,0-3.8,0c1.1-1.5,1.8-2.6,2.5-3.4c20.2-22.6,40.5-45.2,60.6-67.8c1.9-2.1,3.8-2.8,6.5-2.8c36.2,0.1,72.3,0.1,108.5,0.1
		c39.8,0,79.6,0.1,119.5,0.1c19.5,0,36.2-6.5,49.2-21.4c1.7-1.9,3.4-2.7,6-2.7c24.5,0.1,49,0,73.5,0
		C707.5,632.4,708.2,632.5,709.3,632.7z"/>
	<path class="st0" d="M284.1,643.2c64.6-82.5,133.1-161.7,201.8-241.6c29.9,36.6,59.7,73.1,89.7,109.9c10.8-13.4,21.3-26.5,32-39.7
		c38.2,44.9,71.4,92.9,103.7,141.4c-0.3,0.2-0.5,0.4-0.8,0.7c-33-32.2-66.1-64.3-99.5-96.9c-6.9,7.9-14,16.1-21.4,24.6
		c16.1,24,32,47.9,48,71.7c-52.3-47.3-101.4-97.7-147.6-151.8c-27.8,34.4-55,68.1-82.6,102.2c-4.9-4-9.5-7.8-14.2-11.7
		C356.8,582.5,320.5,612.8,284.1,643.2z"/>
</g>
</svg>
